<svg width="24" height="24" viewBox="0 0 24 24" fill="none" xmlns="http://www.w3.org/2000/svg">
<path d="M1 1L4.5 3L6.5 15M6.5 15H19.5L23 5C23 4.2 13 4.33333 8 4.5M6.5 15L7.5 16L7 18.5H9M9 18.5C9 18.5 14.1805 18.5 17.5 18.5M9 18.5C9 18.5 9 19.1095 9 19.5M20.5 18.5C20.5 18.5 18.6716 18.5 17.5 18.5M17.5 18.5C17.5 18.6953 17.5 19.3047 17.5 19.5M17.5 19.5C16.6716 19.5 16 20.1716 16 21C16 21.8284 16.6716 22.5 17.5 22.5C18.3284 22.5 19 21.8284 19 21C19 20.1716 18.3284 19.5 17.5 19.5ZM9 19.5C8.17157 19.5 7.5 20.1716 7.5 21C7.5 21.8284 8.17157 22.5 9 22.5C9.82843 22.5 10.5 21.8284 10.5 21C10.5 20.1716 9.82843 19.5 9 19.5Z" stroke="black" stroke-width="1.5"/>
</svg>
